<?xml version="1.0" encoding="iso-8859-1"?>
<svg version="1.1" id="Layer_1" xmlns="http://www.w3.org/2000/svg" xmlns:xlink="http://www.w3.org/1999/xlink" x="0px"
     y="0px"
     viewBox="0 0 504.123 504.123" style="enable-background:new 0 0 504.123 504.123;" xml:space="preserve">
<path style="fill:#0A9184;" d="M252.062,471.119c-10.272,0-18.597-8.326-18.597-18.59c0-10.279,8.334-18.597,18.597-18.597
	c88.19,0,159.925-71.735,159.925-159.933s-71.735-159.941-159.925-159.941c-88.198,0-159.933,71.735-159.933,159.933
	c0,10.272-8.334,18.59-18.605,18.59c-10.264,0-18.582-8.326-18.582-18.59c0-108.702,88.434-197.12,197.12-197.12
	s197.12,88.426,197.12,197.12S360.755,471.119,252.062,471.119z"/>
    <path id="SVGCleanerId_0" style="fill:#15CC93;" d="M198.703,265.547l39.471-46.293c1.568-1.851,1.953-4.435,0.906-6.632
	c-1.008-2.221-3.214-3.631-5.648-3.631h-18.826c-1.875,0-3.655,0.835-4.836,2.292l-34.627,42.543v-38.613
	c0-3.434-2.788-6.223-6.223-6.223h-15.179c-3.442,0-6.223,2.788-6.223,6.223v117.547c0,3.442,2.788,6.231,6.223,6.231h15.179
	c3.442,0,6.223-2.788,6.223-6.231v-42.496l4.309-4.994l34.154,50.956c1.174,1.725,3.111,2.765,5.183,2.765h17.967
	c2.316,0,4.419-1.276,5.49-3.316c1.087-2.04,0.953-4.49-0.339-6.396L198.703,265.547z"/>
    <path id="SVGCleanerId_1" style="fill:#15CC93;" d="M350.381,264.799h-38.707c-3.45,0-6.231,2.788-6.231,6.223v12.209
	c0,3.442,2.788,6.231,6.231,6.231h17.66v24.418c-3.127,0.748-7.798,1.331-14.005,1.331c-24.481,0-39.101-15.407-39.101-41.212
	c0-25.687,15.328-41.039,41.031-41.039c11.784,0,18.708,2.434,23.45,4.521c1.646,0.733,3.49,0.717,5.12-0.032
	c1.638-0.756,2.859-2.166,3.371-3.875l3.678-12.383c0.859-2.93-0.504-6.057-3.253-7.381c-6.057-2.914-17.621-6.034-32.02-6.034
	c-41.574,0-69.671,26.876-69.884,66.914c0,19.448,6.672,37.022,18.322,48.278c12.178,11.595,27.947,17.235,48.254,17.235
	c15.833,0,29.515-3.702,38.187-6.806c2.473-0.89,4.12-3.23,4.12-5.86v-56.517C356.596,267.587,353.816,264.799,350.381,264.799z"/>
    <g>
	<path id="SVGCleanerId_0_1_" style="fill:#15CC93;" d="M198.703,265.547l39.471-46.293c1.568-1.851,1.953-4.435,0.906-6.632
		c-1.008-2.221-3.214-3.631-5.648-3.631h-18.826c-1.875,0-3.655,0.835-4.836,2.292l-34.627,42.543v-38.613
		c0-3.434-2.788-6.223-6.223-6.223h-15.179c-3.442,0-6.223,2.788-6.223,6.223v117.547c0,3.442,2.788,6.231,6.223,6.231h15.179
		c3.442,0,6.223-2.788,6.223-6.231v-42.496l4.309-4.994l34.154,50.956c1.174,1.725,3.111,2.765,5.183,2.765h17.967
		c2.316,0,4.419-1.276,5.49-3.316c1.087-2.04,0.953-4.49-0.339-6.396L198.703,265.547z"/>
</g>
    <g>
	<path id="SVGCleanerId_1_1_" style="fill:#15CC93;" d="M350.381,264.799h-38.707c-3.45,0-6.231,2.788-6.231,6.223v12.209
		c0,3.442,2.788,6.231,6.231,6.231h17.66v24.418c-3.127,0.748-7.798,1.331-14.005,1.331c-24.481,0-39.101-15.407-39.101-41.212
		c0-25.687,15.328-41.039,41.031-41.039c11.784,0,18.708,2.434,23.45,4.521c1.646,0.733,3.49,0.717,5.12-0.032
		c1.638-0.756,2.859-2.166,3.371-3.875l3.678-12.383c0.859-2.93-0.504-6.057-3.253-7.381c-6.057-2.914-17.621-6.034-32.02-6.034
		c-41.574,0-69.671,26.876-69.884,66.914c0,19.448,6.672,37.022,18.322,48.278c12.178,11.595,27.947,17.235,48.254,17.235
		c15.833,0,29.515-3.702,38.187-6.806c2.473-0.89,4.12-3.23,4.12-5.86v-56.517C356.596,267.587,353.816,264.799,350.381,264.799z"/>
</g>
    <g>
	<path style="fill:#0A9184;" d="M250.967,504.123c-3.875,0-7.751-1.481-10.72-4.443l-35.612-35.612
		c-5.923-5.931-5.923-15.541,0-21.457l35.612-35.604c5.931-5.931,15.541-5.931,21.465,0c5.939,5.931,5.939,15.533,0,21.465
		l-24.891,24.867l24.883,24.891c5.931,5.923,5.931,15.533,0,21.449C258.741,502.642,254.85,504.123,250.967,504.123z"/>
        <path style="fill:#0A9184;" d="M296.062,82.448c0,9.248-7.475,16.738-16.731,16.738h-54.548c-9.232,0-16.731-7.491-16.731-16.738
		l0,0c0-9.248,7.499-16.738,16.731-16.738h54.548C288.587,65.709,296.062,73.2,296.062,82.448L296.062,82.448z"/>
</g>
    <path style="fill:#1EE28E;" d="M332.028,55.792c0,12.327-9.988,22.315-22.323,22.315H194.418c-12.32,0-22.323-9.988-22.323-22.315
	V22.323C172.095,9.996,182.099,0,194.418,0h115.295c12.335,0,22.323,9.996,22.323,22.323v33.469H332.028z"/>
    <path style="fill:#15CC93;" d="M172.095,22.323C172.095,9.996,182.099,0,194.418,0h115.295c12.335,0,22.323,9.996,22.323,22.323
	v33.469c0,12.327-9.988,22.315-22.323,22.315"/>
    <path style="fill:#4FFCAD;" d="M194.418,16.738h115.295c9.263,0,17.195-1.268,20.575-3.088C326.9,5.632,318.968,0,309.705,0H194.418
	c-9.255,0-17.203,5.632-20.567,13.651C177.215,15.47,185.163,16.738,194.418,16.738z"/>
    <path style="fill:#0A9184;" d="M432.152,97.501c9.106,9.114,9.098,23.859,0.008,32.965l-30.531,30.523
	c-9.098,9.106-23.843,9.106-32.973,0l0,0c-9.09-9.114-9.09-23.859,0-32.973l30.531-30.515
	C408.292,88.403,423.046,88.387,432.152,97.501L432.152,97.501z"/>
    <g>
</g>
    <g>
</g>
    <g>
</g>
    <g>
</g>
    <g>
</g>
    <g>
</g>
    <g>
</g>
    <g>
</g>
    <g>
</g>
    <g>
</g>
    <g>
</g>
    <g>
</g>
    <g>
</g>
    <g>
</g>
    <g>
</g>
</svg>
